<svg width="1280" height="720" xmlns="http://www.w3.org/2000/svg">
  <defs>
    <!-- reusable 'OR' gate shape -->
    <g id="gate_or">
      <circle cx="0" cy="0" r="3" stroke="none" stroke-width="0" fill="black" />
    </g>
    <!-- reusable 'AND' gate shape -->
    <g id="gate_and">
      <rect x="-3" y="-3" width="6" height="6" stroke="none" stroke-width="0" fill="black" />
    </g>
    <!-- reusable 'NOR' gate shape -->
    <g id="gate_nor">
      <circle cx="0" cy="0" r="3" stroke="black" stroke-width="1" fill="white" />
    </g>
  </defs>
  <!-- Wires (drawn first so they don't obscure nodes) -->
  <g style="stroke:black; stroke-width:1; fill:none;">
    <path d="M444,308 L444,308 L452,308" />
    <path d="M444,316 L444,316 L452,316" />
    <path d="M452,308 L452,324 L452,324" />
    <path d="M452,308 L452,308 L460,308" />
    <path d="M452,324 L452,324 L460,324" />
    <path d="M452,316 L452,316 L460,324" />
    <path d="M452,316 L452,316 L460,308" />
    <path d="M460,308 L460,308 L468,308" />
    <path d="M460,324 L460,324 L468,324" />
    <path d="M468,308 L468,308 L476,308" />
    <path d="M468,324 L468,324 L476,324" />
    <path d="M476,308 L468,316 L468,324" />
    <path d="M476,324 L468,316 L468,308" />
    <path d="M476,324 L484,316 L484,316" />
    <path d="M444,332 L444,332 L452,332" />
    <path d="M444,340 L444,340 L452,340" />
    <path d="M452,332 L452,348 L452,348" />
    <path d="M452,332 L452,332 L460,332" />
    <path d="M452,340 L452,340 L460,348" />
    <path d="M452,340 L452,340 L460,332" />
    <path d="M452,348 L452,348 L460,348" />
    <path d="M460,332 L460,332 L468,332" />
    <path d="M460,348 L460,348 L468,348" />
    <path d="M476,348 L468,340 L468,332" />
    <path d="M468,332 L468,332 L476,332" />
    <path d="M476,332 L468,340 L468,348" />
    <path d="M468,348 L468,348 L476,348" />
    <path d="M476,348 L484,340 L484,340" />
    <path d="M444,356 L444,356 L452,356" />
    <path d="M444,364 L444,364 L452,364" />
    <path d="M452,356 L452,372 L452,372" />
    <path d="M452,356 L452,356 L460,356" />
    <path d="M452,364 L452,364 L460,372" />
    <path d="M452,364 L452,364 L460,356" />
    <path d="M452,372 L452,372 L460,372" />
    <path d="M460,356 L460,356 L468,356" />
    <path d="M460,372 L460,372 L468,372" />
    <path d="M476,372 L468,364 L468,356" />
    <path d="M468,356 L468,356 L476,356" />
    <path d="M476,356 L468,364 L468,372" />
    <path d="M468,372 L468,372 L476,372" />
    <path d="M476,372 L484,364 L484,364" />
    <path d="M444,380 L444,380 L452,380" />
    <path d="M444,388 L444,388 L452,388" />
    <path d="M452,380 L452,396 L452,396" />
    <path d="M452,380 L452,380 L460,380" />
    <path d="M452,388 L452,388 L460,396" />
    <path d="M452,388 L452,388 L460,380" />
    <path d="M452,396 L452,396 L460,396" />
    <path d="M460,380 L460,380 L468,380" />
    <path d="M460,396 L460,396 L468,396" />
    <path d="M476,396 L468,388 L468,380" />
    <path d="M468,380 L468,380 L476,380" />
    <path d="M476,380 L468,388 L468,396" />
    <path d="M468,396 L468,396 L476,396" />
    <path d="M476,396 L484,388 L484,388" />
    <path d="M444,404 L444,404 L452,404" />
    <path d="M444,412 L444,412 L452,412" />
    <path d="M452,404 L452,420 L452,420" />
    <path d="M452,404 L452,404 L460,404" />
    <path d="M452,412 L452,412 L460,420" />
    <path d="M452,412 L452,412 L460,404" />
    <path d="M452,420 L452,420 L460,420" />
    <path d="M460,404 L460,404 L468,404" />
    <path d="M460,420 L460,420 L468,420" />
    <path d="M476,420 L468,412 L468,404" />
    <path d="M468,404 L468,404 L476,404" />
    <path d="M476,404 L468,412 L468,420" />
    <path d="M468,420 L468,420 L476,420" />
    <path d="M476,420 L484,412 L484,412" />
    <path d="M444,428 L444,428 L452,428" />
    <path d="M444,436 L444,436 L452,436" />
    <path d="M452,428 L452,444 L452,444" />
    <path d="M452,428 L452,428 L460,428" />
    <path d="M452,436 L452,436 L460,444" />
    <path d="M452,436 L452,436 L460,428" />
    <path d="M452,444 L452,444 L460,444" />
    <path d="M460,428 L460,428 L468,428" />
    <path d="M460,444 L460,444 L468,444" />
    <path d="M476,444 L468,436 L468,428" />
    <path d="M468,428 L468,428 L476,428" />
    <path d="M476,428 L468,436 L468,444" />
    <path d="M468,444 L468,444 L476,444" />
    <path d="M476,444 L484,436 L484,436" />
    <path d="M444,452 L444,452 L452,452" />
    <path d="M444,460 L444,460 L452,460" />
    <path d="M452,452 L452,468 L452,468" />
    <path d="M452,452 L452,452 L460,452" />
    <path d="M452,460 L452,460 L460,468" />
    <path d="M452,460 L452,460 L460,452" />
    <path d="M452,468 L452,468 L460,468" />
    <path d="M460,452 L460,452 L468,452" />
    <path d="M460,468 L460,468 L468,468" />
    <path d="M476,468 L468,460 L468,452" />
    <path d="M468,452 L468,452 L476,452" />
    <path d="M476,452 L468,460 L468,468" />
    <path d="M468,468 L468,468 L476,468" />
    <path d="M476,468 L484,460 L484,460" />
    <path d="M444,476 L444,476 L452,476" />
    <path d="M444,484 L444,484 L452,484" />
    <path d="M452,476 L452,492 L452,492" />
    <path d="M452,476 L452,476 L460,476" />
    <path d="M452,484 L452,484 L460,492" />
    <path d="M452,484 L452,484 L460,476" />
    <path d="M452,492 L452,492 L460,492" />
    <path d="M460,476 L460,476 L468,476" />
    <path d="M460,492 L460,492 L468,492" />
    <path d="M476,492 L468,484 L468,476" />
    <path d="M468,476 L468,476 L476,476" />
    <path d="M476,476 L468,484 L468,492" />
    <path d="M468,492 L468,492 L476,492" />
    <path d="M476,492 L484,484 L484,484" />
    <path d="M444,316 L444,340 L444,340" />
    <path d="M444,340 L444,364 L444,364" />
    <path d="M444,364 L444,388 L444,388" />
    <path d="M444,388 L444,412 L444,412" />
    <path d="M444,412 L444,436 L444,436" />
    <path d="M444,436 L444,460 L444,460" />
    <path d="M444,460 L444,484 L444,484" />
    <path d="M444,508 L444,508 L452,508" />
    <path d="M444,532 L444,532 L452,532" />
    <path d="M444,556 L444,556 L452,556" />
    <path d="M444,580 L444,580 L452,580" />
    <path d="M444,604 L444,604 L452,604" />
    <path d="M444,628 L444,628 L452,628" />
    <path d="M444,676 L444,676 L452,676" />
    <path d="M444,652 L444,652 L452,652" />
    <path d="M444,516 L444,516 L452,516" />
    <path d="M444,516 L444,540 L444,540" />
    <path d="M452,508 L452,524 L452,524" />
    <path d="M452,508 L452,508 L460,508" />
    <path d="M452,532 L452,548 L452,548" />
    <path d="M452,532 L452,532 L460,532" />
    <path d="M452,556 L452,572 L452,572" />
    <path d="M452,556 L452,556 L460,556" />
    <path d="M452,580 L452,596 L452,596" />
    <path d="M452,580 L452,580 L460,580" />
    <path d="M452,604 L452,620 L452,620" />
    <path d="M452,604 L452,604 L460,604" />
    <path d="M452,628 L452,644 L452,644" />
    <path d="M452,628 L452,628 L460,628" />
    <path d="M452,676 L452,692 L452,692" />
    <path d="M452,676 L452,676 L460,676" />
    <path d="M452,652 L452,668 L452,668" />
    <path d="M452,652 L452,652 L460,652" />
    <path d="M452,516 L452,516 L460,524" />
    <path d="M452,516 L452,516 L460,508" />
    <path d="M444,540 L444,540 L452,540" />
    <path d="M444,540 L444,564 L444,564" />
    <path d="M452,524 L452,524 L460,524" />
    <path d="M460,508 L460,508 L468,508" />
    <path d="M452,548 L452,548 L460,548" />
    <path d="M452,540 L452,540 L460,532" />
    <path d="M460,532 L460,532 L468,532" />
    <path d="M452,572 L452,572 L460,572" />
    <path d="M452,564 L452,564 L460,556" />
    <path d="M460,556 L460,556 L468,556" />
    <path d="M452,596 L452,596 L460,596" />
    <path d="M452,588 L452,588 L460,580" />
    <path d="M460,580 L460,580 L468,580" />
    <path d="M452,620 L452,620 L460,620" />
    <path d="M452,612 L452,612 L460,604" />
    <path d="M460,604 L460,604 L468,604" />
    <path d="M452,644 L452,644 L460,644" />
    <path d="M452,636 L452,636 L460,628" />
    <path d="M460,628 L460,628 L468,628" />
    <path d="M452,692 L452,692 L460,692" />
    <path d="M452,684 L452,684 L460,676" />
    <path d="M460,676 L460,676 L468,676" />
    <path d="M452,668 L452,668 L460,668" />
    <path d="M452,660 L452,660 L460,652" />
    <path d="M460,652 L460,652 L468,652" />
    <path d="M460,524 L460,524 L468,524" />
    <path d="M452,540 L452,540 L460,548" />
    <path d="M444,564 L444,564 L452,564" />
    <path d="M444,564 L444,588 L444,588" />
    <path d="M476,524 L468,516 L468,508" />
    <path d="M468,508 L468,508 L476,508" />
    <path d="M460,548 L460,548 L468,548" />
    <path d="M476,548 L468,540 L468,532" />
    <path d="M468,532 L468,532 L476,532" />
    <path d="M452,564 L452,564 L460,572" />
    <path d="M460,572 L460,572 L468,572" />
    <path d="M476,572 L468,564 L468,556" />
    <path d="M468,556 L468,556 L476,556" />
    <path d="M452,588 L452,588 L460,596" />
    <path d="M460,596 L460,596 L468,596" />
    <path d="M476,596 L468,588 L468,580" />
    <path d="M468,580 L468,580 L476,580" />
    <path d="M452,612 L452,612 L460,620" />
    <path d="M460,620 L460,620 L468,620" />
    <path d="M476,620 L468,612 L468,604" />
    <path d="M468,604 L468,604 L476,604" />
    <path d="M452,636 L452,636 L460,644" />
    <path d="M460,644 L460,644 L468,644" />
    <path d="M476,644 L468,636 L468,628" />
    <path d="M468,628 L468,628 L476,628" />
    <path d="M452,684 L452,684 L460,692" />
    <path d="M460,692 L460,692 L468,692" />
    <path d="M476,692 L468,684 L468,676" />
    <path d="M468,676 L468,676 L476,676" />
    <path d="M452,660 L452,660 L460,668" />
    <path d="M460,668 L460,668 L468,668" />
    <path d="M476,668 L468,660 L468,652" />
    <path d="M468,652 L468,652 L476,652" />
    <path d="M476,508 L468,516 L468,524" />
    <path d="M468,524 L468,524 L476,524" />
    <path d="M444,588 L444,588 L452,588" />
    <path d="M444,588 L444,612 L444,612" />
    <path d="M476,532 L468,540 L468,548" />
    <path d="M468,548 L468,548 L476,548" />
    <path d="M476,556 L468,564 L468,572" />
    <path d="M468,572 L468,572 L476,572" />
    <path d="M476,580 L468,588 L468,596" />
    <path d="M468,596 L468,596 L476,596" />
    <path d="M476,604 L468,612 L468,620" />
    <path d="M468,620 L468,620 L476,620" />
    <path d="M476,628 L468,636 L468,644" />
    <path d="M468,644 L468,644 L476,644" />
    <path d="M476,676 L468,684 L468,692" />
    <path d="M468,692 L468,692 L476,692" />
    <path d="M476,652 L468,660 L468,668" />
    <path d="M468,668 L468,668 L476,668" />
    <path d="M476,524 L484,516 L484,516" />
    <path d="M444,612 L444,612 L452,612" />
    <path d="M444,612 L444,636 L444,636" />
    <path d="M476,548 L484,540 L484,540" />
    <path d="M476,572 L484,564 L484,564" />
    <path d="M476,596 L484,588 L484,588" />
    <path d="M476,620 L484,612 L484,612" />
    <path d="M476,644 L484,636 L484,636" />
    <path d="M476,692 L484,684 L484,684" />
    <path d="M476,668 L484,660 L484,660" />
    <path d="M444,636 L444,636 L452,636" />
    <path d="M444,636 L444,660 L444,660" />
    <path d="M444,660 L444,660 L452,660" />
    <path d="M444,660 L444,684 L444,684" />
    <path d="M444,684 L444,684 L452,684" />
    <path d="M444,300 L444,316 L444,316" />
    <path d="M444,500 L444,516 L444,516" />
    <path d="M436,300 L436,300 L444,300" />
    <path d="M428,292 L428,300 L436,300" />
    <path d="M340,292 L340,300 L444,300" />
    <path d="M340,292 L340,500 L444,500" />
    <path d="M412,292 L412,308 L444,308" />
    <path d="M404,292 L404,332 L444,332" />
    <path d="M396,292 L396,356 L444,356" />
    <path d="M388,292 L388,380 L444,380" />
    <path d="M380,292 L380,404 L444,404" />
    <path d="M372,292 L372,428 L444,428" />
    <path d="M364,292 L364,452 L444,452" />
    <path d="M356,292 L356,476 L444,476" />
    <path d="M412,292 L412,508 L444,508" />
    <path d="M404,292 L404,532 L444,532" />
    <path d="M396,292 L396,556 L444,556" />
    <path d="M388,292 L388,580 L444,580" />
    <path d="M380,292 L380,604 L444,604" />
    <path d="M372,292 L372,628 L444,628" />
    <path d="M364,292 L364,652 L444,652" />
    <path d="M356,292 L356,676 L444,676" />
    <path d="M436,300 L484,300 L484,316" />
    <path d="M436,300 L484,300 L484,364" />
    <path d="M436,300 L484,300 L484,388" />
    <path d="M436,300 L484,300 L484,412" />
    <path d="M436,300 L484,300 L484,436" />
    <path d="M436,300 L484,300 L484,460" />
    <path d="M436,300 L484,300 L484,484" />
    <path d="M428,292 L428,500 L428,500" />
    <path d="M428,500 L428,500 L444,500" />
    <path d="M428,500 L484,500 L484,516" />
    <path d="M428,500 L484,500 L484,540" />
    <path d="M428,500 L484,500 L484,564" />
    <path d="M428,500 L484,500 L484,588" />
    <path d="M428,500 L484,500 L484,612" />
    <path d="M428,500 L484,500 L484,636" />
    <path d="M428,500 L484,500 L484,660" />
    <path d="M428,500 L484,500 L484,684" />
    <path d="M484,484 L492,484 L492,292" />
    <path d="M484,460 L500,460 L500,292" />
    <path d="M484,436 L508,436 L508,292" />
    <path d="M484,412 L516,412 L516,292" />
    <path d="M484,388 L524,388 L524,292" />
    <path d="M484,364 L532,364 L532,292" />
    <path d="M484,340 L540,340 L540,292" />
    <path d="M484,316 L548,316 L548,292" />
    <path d="M484,516 L492,516 L492,292" />
    <path d="M484,540 L500,540 L500,292" />
    <path d="M484,564 L508,564 L508,292" />
    <path d="M484,588 L516,588 L516,292" />
    <path d="M484,612 L524,612 L524,292" />
    <path d="M484,636 L532,636 L532,292" />
    <path d="M484,660 L540,660 L540,292" />
    <path d="M484,684 L548,684 L548,292" />
    <path d="M436,300 L484,300 L484,340" />
  </g>
  <!-- Nodes (reuse shapes defined in header <def> section) -->
  <use href="#gate_or" x="428" y="292" />
  <use href="#gate_or" x="396" y="292" />
  <use href="#gate_or" x="388" y="292" />
  <use href="#gate_or" x="380" y="292" />
  <use href="#gate_or" x="372" y="292" />
  <use href="#gate_or" x="364" y="292" />
  <use href="#gate_or" x="356" y="292" />
  <use href="#gate_or" x="412" y="292" />
  <use href="#gate_or" x="340" y="292" />
  <use href="#gate_or" x="404" y="292" />
  <use href="#gate_and" x="436" y="300" />
  <use href="#gate_or" x="428" y="500" />
  <use href="#gate_or" x="444" y="356" />
  <use href="#gate_or" x="444" y="556" />
  <use href="#gate_or" x="444" y="380" />
  <use href="#gate_or" x="444" y="580" />
  <use href="#gate_or" x="444" y="404" />
  <use href="#gate_or" x="444" y="604" />
  <use href="#gate_or" x="444" y="428" />
  <use href="#gate_or" x="444" y="628" />
  <use href="#gate_or" x="444" y="452" />
  <use href="#gate_or" x="444" y="652" />
  <use href="#gate_or" x="444" y="476" />
  <use href="#gate_or" x="444" y="676" />
  <use href="#gate_or" x="444" y="308" />
  <use href="#gate_or" x="444" y="508" />
  <use href="#gate_and" x="444" y="300" />
  <use href="#gate_and" x="444" y="500" />
  <use href="#gate_or" x="444" y="332" />
  <use href="#gate_or" x="444" y="532" />
  <use href="#gate_and" x="484" y="316" />
  <use href="#gate_and" x="484" y="364" />
  <use href="#gate_and" x="484" y="388" />
  <use href="#gate_and" x="484" y="412" />
  <use href="#gate_and" x="484" y="436" />
  <use href="#gate_and" x="484" y="460" />
  <use href="#gate_and" x="484" y="484" />
  <use href="#gate_and" x="484" y="340" />
  <use href="#gate_and" x="484" y="516" />
  <use href="#gate_and" x="484" y="540" />
  <use href="#gate_and" x="484" y="564" />
  <use href="#gate_and" x="484" y="588" />
  <use href="#gate_and" x="484" y="612" />
  <use href="#gate_and" x="484" y="636" />
  <use href="#gate_and" x="484" y="660" />
  <use href="#gate_and" x="484" y="684" />
  <use href="#gate_or" x="452" y="356" />
  <use href="#gate_or" x="452" y="556" />
  <use href="#gate_or" x="452" y="380" />
  <use href="#gate_or" x="452" y="580" />
  <use href="#gate_or" x="452" y="404" />
  <use href="#gate_or" x="452" y="604" />
  <use href="#gate_or" x="452" y="428" />
  <use href="#gate_or" x="452" y="628" />
  <use href="#gate_or" x="452" y="452" />
  <use href="#gate_or" x="452" y="652" />
  <use href="#gate_or" x="452" y="476" />
  <use href="#gate_or" x="452" y="676" />
  <use href="#gate_or" x="452" y="308" />
  <use href="#gate_or" x="452" y="508" />
  <use href="#gate_or" x="444" y="316" />
  <use href="#gate_or" x="444" y="516" />
  <use href="#gate_or" x="452" y="332" />
  <use href="#gate_or" x="452" y="532" />
  <use href="#gate_or" x="548" y="292" />
  <use href="#gate_or" x="532" y="292" />
  <use href="#gate_or" x="524" y="292" />
  <use href="#gate_or" x="516" y="292" />
  <use href="#gate_or" x="508" y="292" />
  <use href="#gate_or" x="500" y="292" />
  <use href="#gate_or" x="492" y="292" />
  <use href="#gate_or" x="540" y="292" />
  <use href="#gate_and" x="452" y="372" />
  <use href="#gate_and" x="460" y="356" />
  <use href="#gate_and" x="452" y="572" />
  <use href="#gate_and" x="460" y="556" />
  <use href="#gate_and" x="452" y="396" />
  <use href="#gate_and" x="460" y="380" />
  <use href="#gate_and" x="452" y="596" />
  <use href="#gate_and" x="460" y="580" />
  <use href="#gate_and" x="452" y="420" />
  <use href="#gate_and" x="460" y="404" />
  <use href="#gate_and" x="452" y="620" />
  <use href="#gate_and" x="460" y="604" />
  <use href="#gate_and" x="452" y="444" />
  <use href="#gate_and" x="460" y="428" />
  <use href="#gate_and" x="452" y="644" />
  <use href="#gate_and" x="460" y="628" />
  <use href="#gate_and" x="452" y="468" />
  <use href="#gate_and" x="460" y="452" />
  <use href="#gate_and" x="452" y="668" />
  <use href="#gate_and" x="460" y="652" />
  <use href="#gate_and" x="452" y="492" />
  <use href="#gate_and" x="460" y="476" />
  <use href="#gate_and" x="452" y="692" />
  <use href="#gate_and" x="460" y="676" />
  <use href="#gate_and" x="452" y="324" />
  <use href="#gate_and" x="460" y="308" />
  <use href="#gate_and" x="452" y="524" />
  <use href="#gate_and" x="460" y="508" />
  <use href="#gate_or" x="452" y="316" />
  <use href="#gate_or" x="444" y="340" />
  <use href="#gate_or" x="452" y="516" />
  <use href="#gate_or" x="444" y="540" />
  <use href="#gate_and" x="452" y="348" />
  <use href="#gate_and" x="460" y="332" />
  <use href="#gate_and" x="452" y="548" />
  <use href="#gate_and" x="460" y="532" />
  <use href="#gate_and" x="460" y="372" />
  <use href="#gate_or" x="468" y="356" />
  <use href="#gate_and" x="460" y="572" />
  <use href="#gate_or" x="468" y="556" />
  <use href="#gate_and" x="460" y="396" />
  <use href="#gate_or" x="468" y="380" />
  <use href="#gate_and" x="460" y="596" />
  <use href="#gate_or" x="468" y="580" />
  <use href="#gate_and" x="460" y="420" />
  <use href="#gate_or" x="468" y="404" />
  <use href="#gate_and" x="460" y="620" />
  <use href="#gate_or" x="468" y="604" />
  <use href="#gate_and" x="460" y="444" />
  <use href="#gate_or" x="468" y="428" />
  <use href="#gate_and" x="460" y="644" />
  <use href="#gate_or" x="468" y="628" />
  <use href="#gate_and" x="460" y="468" />
  <use href="#gate_or" x="468" y="452" />
  <use href="#gate_and" x="460" y="668" />
  <use href="#gate_or" x="468" y="652" />
  <use href="#gate_and" x="460" y="492" />
  <use href="#gate_or" x="468" y="476" />
  <use href="#gate_and" x="460" y="692" />
  <use href="#gate_or" x="468" y="676" />
  <use href="#gate_and" x="460" y="324" />
  <use href="#gate_or" x="468" y="308" />
  <use href="#gate_and" x="460" y="524" />
  <use href="#gate_or" x="468" y="508" />
  <use href="#gate_or" x="452" y="340" />
  <use href="#gate_or" x="444" y="364" />
  <use href="#gate_or" x="452" y="540" />
  <use href="#gate_or" x="444" y="564" />
  <use href="#gate_and" x="460" y="348" />
  <use href="#gate_or" x="468" y="332" />
  <use href="#gate_and" x="460" y="548" />
  <use href="#gate_or" x="468" y="532" />
  <use href="#gate_or" x="468" y="372" />
  <use href="#gate_and" x="476" y="356" />
  <use href="#gate_or" x="468" y="572" />
  <use href="#gate_and" x="476" y="556" />
  <use href="#gate_or" x="468" y="396" />
  <use href="#gate_and" x="476" y="380" />
  <use href="#gate_or" x="468" y="596" />
  <use href="#gate_and" x="476" y="580" />
  <use href="#gate_or" x="468" y="420" />
  <use href="#gate_and" x="476" y="404" />
  <use href="#gate_or" x="468" y="620" />
  <use href="#gate_and" x="476" y="604" />
  <use href="#gate_or" x="468" y="444" />
  <use href="#gate_and" x="476" y="428" />
  <use href="#gate_or" x="468" y="644" />
  <use href="#gate_and" x="476" y="628" />
  <use href="#gate_or" x="468" y="468" />
  <use href="#gate_and" x="476" y="452" />
  <use href="#gate_or" x="468" y="668" />
  <use href="#gate_and" x="476" y="652" />
  <use href="#gate_or" x="468" y="492" />
  <use href="#gate_and" x="476" y="476" />
  <use href="#gate_or" x="468" y="692" />
  <use href="#gate_and" x="476" y="676" />
  <use href="#gate_or" x="468" y="324" />
  <use href="#gate_and" x="476" y="308" />
  <use href="#gate_or" x="468" y="524" />
  <use href="#gate_and" x="476" y="508" />
  <use href="#gate_or" x="452" y="364" />
  <use href="#gate_or" x="444" y="388" />
  <use href="#gate_or" x="452" y="564" />
  <use href="#gate_or" x="444" y="588" />
  <use href="#gate_or" x="468" y="348" />
  <use href="#gate_and" x="476" y="332" />
  <use href="#gate_or" x="468" y="548" />
  <use href="#gate_and" x="476" y="532" />
  <use href="#gate_and" x="476" y="372" />
  <use href="#gate_and" x="476" y="572" />
  <use href="#gate_and" x="476" y="396" />
  <use href="#gate_and" x="476" y="596" />
  <use href="#gate_and" x="476" y="420" />
  <use href="#gate_and" x="476" y="620" />
  <use href="#gate_and" x="476" y="444" />
  <use href="#gate_and" x="476" y="644" />
  <use href="#gate_and" x="476" y="468" />
  <use href="#gate_and" x="476" y="668" />
  <use href="#gate_and" x="476" y="492" />
  <use href="#gate_and" x="476" y="692" />
  <use href="#gate_and" x="476" y="324" />
  <use href="#gate_and" x="476" y="524" />
  <use href="#gate_or" x="452" y="388" />
  <use href="#gate_or" x="444" y="412" />
  <use href="#gate_or" x="452" y="588" />
  <use href="#gate_or" x="444" y="612" />
  <use href="#gate_and" x="476" y="348" />
  <use href="#gate_and" x="476" y="548" />
  <use href="#gate_or" x="452" y="412" />
  <use href="#gate_or" x="444" y="436" />
  <use href="#gate_or" x="452" y="612" />
  <use href="#gate_or" x="444" y="636" />
  <use href="#gate_or" x="452" y="436" />
  <use href="#gate_or" x="444" y="460" />
  <use href="#gate_or" x="452" y="636" />
  <use href="#gate_or" x="444" y="660" />
  <use href="#gate_or" x="452" y="460" />
  <use href="#gate_or" x="444" y="484" />
  <use href="#gate_or" x="452" y="660" />
  <use href="#gate_or" x="444" y="684" />
  <use href="#gate_or" x="452" y="484" />
  <use href="#gate_or" x="452" y="684" />
</svg>