<svg viewbox="700 500 1276 724" xmlns="http://www.w3.org/2000/svg">
  <defs>
    <!-- reusable 'OR' gate shape -->
    <g id="gate_or">
      <circle cx="0" cy="0" r="3" stroke="none" stroke-width="0" fill="black" />
    </g>
    <!-- reusable 'AND' gate shape -->
    <g id="gate_and">
      <rect x="-3" y="-3" width="6" height="6" stroke="none" stroke-width="0" fill="black" />
    </g>
    <!-- reusable 'NOR' gate shape -->
    <g id="gate_nor">
      <circle cx="0" cy="0" r="3" stroke="black" stroke-width="1" fill="white" />
    </g>
    <!-- reusable LED shape -->
    <g id="gate_led">
      <polygon points="0.000000,4.500000 3.897114,-2.250000 -3.897115,-2.250000" stroke="black" stroke-width="1" fill="white" />
    </g>
  </defs>
  <!-- Wires (drawn first so they don't obscure nodes) -->
  <g style="stroke:black; stroke-width:1; fill:none;">
    <path d="M732,612 L732,620 L724,620" />
    <path d="M724,620 L724,628 L724,628" />
    <path d="M732,612 L732,628 L732,628" />
    <path d="M724,612 L724,628 L724,628" />
    <path d="M724,612 L724,620 L732,628" />
    <path d="M724,628 L724,636 L724,636" />
    <path d="M724,636 L724,644 L724,644" />
    <path d="M724,644 L732,636 L732,636" />
    <path d="M732,636 L732,636 L732,644" />
    <path d="M732,644 L724,636 L724,636" />
    <path d="M732,628 L732,628 L732,636" />
    <path d="M740,612 L740,628 L740,628" />
    <path d="M740,612 L740,620 L748,628" />
    <path d="M748,612 L748,620 L740,620" />
    <path d="M748,612 L748,628 L748,628" />
    <path d="M740,620 L740,628 L740,628" />
    <path d="M740,628 L740,636 L740,636" />
    <path d="M748,628 L748,628 L748,636" />
    <path d="M748,644 L740,636 L740,636" />
    <path d="M740,636 L740,644 L740,644" />
    <path d="M740,644 L748,636 L748,636" />
    <path d="M748,636 L748,636 L748,644" />
    <path d="M756,612 L756,628 L756,628" />
    <path d="M756,612 L756,620 L764,628" />
    <path d="M764,612 L764,620 L756,620" />
    <path d="M764,612 L764,628 L764,628" />
    <path d="M756,620 L756,628 L756,628" />
    <path d="M756,628 L756,636 L756,636" />
    <path d="M764,628 L764,628 L764,636" />
    <path d="M764,644 L756,636 L756,636" />
    <path d="M756,636 L756,644 L756,644" />
    <path d="M756,644 L764,636 L764,636" />
    <path d="M764,636 L764,636 L764,644" />
    <path d="M772,612 L772,628 L772,628" />
    <path d="M772,612 L772,620 L780,628" />
    <path d="M780,612 L780,620 L772,620" />
    <path d="M780,612 L780,628 L780,628" />
    <path d="M772,620 L772,628 L772,628" />
    <path d="M772,628 L772,636 L772,636" />
    <path d="M780,628 L780,628 L780,636" />
    <path d="M780,644 L772,636 L772,636" />
    <path d="M772,636 L772,644 L772,644" />
    <path d="M772,644 L780,636 L780,636" />
    <path d="M780,636 L780,636 L780,644" />
    <path d="M788,612 L788,628 L788,628" />
    <path d="M788,612 L788,620 L796,628" />
    <path d="M796,612 L796,620 L788,620" />
    <path d="M796,612 L796,628 L796,628" />
    <path d="M788,620 L788,628 L788,628" />
    <path d="M788,628 L788,636 L788,636" />
    <path d="M796,628 L796,628 L796,636" />
    <path d="M796,644 L788,636 L788,636" />
    <path d="M788,636 L788,644 L788,644" />
    <path d="M788,644 L796,636 L796,636" />
    <path d="M796,636 L796,636 L796,644" />
    <path d="M804,612 L804,628 L804,628" />
    <path d="M804,612 L804,620 L812,628" />
    <path d="M812,612 L812,620 L804,620" />
    <path d="M812,612 L812,628 L812,628" />
    <path d="M804,620 L804,628 L804,628" />
    <path d="M804,628 L804,636 L804,636" />
    <path d="M812,628 L812,628 L812,636" />
    <path d="M812,644 L804,636 L804,636" />
    <path d="M804,636 L804,644 L804,644" />
    <path d="M804,644 L812,636 L812,636" />
    <path d="M812,636 L812,636 L812,644" />
    <path d="M820,612 L820,628 L820,628" />
    <path d="M820,612 L820,620 L828,628" />
    <path d="M828,612 L828,620 L820,620" />
    <path d="M828,612 L828,628 L828,628" />
    <path d="M820,620 L820,628 L820,628" />
    <path d="M820,628 L820,636 L820,636" />
    <path d="M828,628 L828,628 L828,636" />
    <path d="M828,644 L820,636 L820,636" />
    <path d="M820,636 L820,644 L820,644" />
    <path d="M820,644 L828,636 L828,636" />
    <path d="M828,636 L828,636 L828,644" />
    <path d="M836,612 L836,628 L836,628" />
    <path d="M836,612 L836,620 L844,628" />
    <path d="M844,612 L844,620 L836,620" />
    <path d="M844,612 L844,628 L844,628" />
    <path d="M836,620 L836,628 L836,628" />
    <path d="M836,628 L836,636 L836,636" />
    <path d="M844,628 L844,628 L844,636" />
    <path d="M844,644 L836,636 L836,636" />
    <path d="M836,636 L836,644 L836,644" />
    <path d="M836,644 L844,636 L844,636" />
    <path d="M844,636 L844,636 L844,644" />
    <path d="M724,644 L724,652 L724,652" />
    <path d="M740,644 L740,652 L740,652" />
    <path d="M756,644 L756,652 L756,652" />
    <path d="M772,644 L772,652 L772,652" />
    <path d="M788,644 L788,652 L788,652" />
    <path d="M804,644 L804,652 L804,652" />
    <path d="M820,644 L820,652 L820,652" />
    <path d="M836,644 L836,652 L836,652" />
    <path d="M724,612 L724,612 L740,612" />
    <path d="M740,612 L740,612 L756,612" />
    <path d="M756,612 L756,612 L772,612" />
    <path d="M772,612 L772,612 L788,612" />
    <path d="M788,612 L788,612 L804,612" />
    <path d="M804,612 L804,612 L820,612" />
    <path d="M820,612 L820,612 L836,612" />
    <path d="M724,604 L724,604 L724,612" />
    <path d="M716,604 L716,604 L724,604" />
    <path d="M716,604 L716,604 L716,652" />
    <path d="M716,652 L716,652 L724,652" />
    <path d="M716,652 L716,652 L740,652" />
    <path d="M716,652 L716,652 L756,652" />
    <path d="M716,652 L716,652 L772,652" />
    <path d="M716,652 L716,652 L788,652" />
    <path d="M716,652 L716,652 L804,652" />
    <path d="M716,652 L716,652 L820,652" />
    <path d="M716,652 L716,652 L836,652" />
    <path d="M876,612 L876,620 L868,620" />
    <path d="M876,612 L876,628 L876,628" />
    <path d="M892,612 L892,620 L884,620" />
    <path d="M892,612 L892,628 L892,628" />
    <path d="M908,612 L908,620 L900,620" />
    <path d="M908,612 L908,628 L908,628" />
    <path d="M924,612 L924,620 L916,620" />
    <path d="M924,612 L924,628 L924,628" />
    <path d="M940,612 L940,620 L932,620" />
    <path d="M940,612 L940,628 L940,628" />
    <path d="M956,612 L956,620 L948,620" />
    <path d="M956,612 L956,628 L956,628" />
    <path d="M972,612 L972,620 L964,620" />
    <path d="M972,612 L972,628 L972,628" />
    <path d="M988,612 L988,620 L980,620" />
    <path d="M988,612 L988,628 L988,628" />
    <path d="M860,604 L860,604 L868,604" />
    <path d="M860,604 L860,604 L860,652" />
    <path d="M868,620 L868,628 L868,628" />
    <path d="M868,612 L868,620 L876,628" />
    <path d="M876,628 L876,628 L876,636" />
    <path d="M884,620 L884,628 L884,628" />
    <path d="M884,612 L884,620 L892,628" />
    <path d="M892,628 L892,628 L892,636" />
    <path d="M900,620 L900,628 L900,628" />
    <path d="M900,612 L900,620 L908,628" />
    <path d="M908,628 L908,628 L908,636" />
    <path d="M916,620 L916,628 L916,628" />
    <path d="M916,612 L916,620 L924,628" />
    <path d="M924,628 L924,628 L924,636" />
    <path d="M932,620 L932,628 L932,628" />
    <path d="M932,612 L932,620 L940,628" />
    <path d="M940,628 L940,628 L940,636" />
    <path d="M948,620 L948,628 L948,628" />
    <path d="M948,612 L948,620 L956,628" />
    <path d="M956,628 L956,628 L956,636" />
    <path d="M964,620 L964,628 L964,628" />
    <path d="M964,612 L964,620 L972,628" />
    <path d="M972,628 L972,628 L972,636" />
    <path d="M980,620 L980,628 L980,628" />
    <path d="M980,612 L980,620 L988,628" />
    <path d="M988,628 L988,628 L988,636" />
    <path d="M868,604 L868,604 L868,612" />
    <path d="M860,652 L860,652 L868,652" />
    <path d="M860,652 L860,652 L884,652" />
    <path d="M860,652 L860,652 L900,652" />
    <path d="M860,652 L860,652 L916,652" />
    <path d="M860,652 L860,652 L932,652" />
    <path d="M860,652 L860,652 L948,652" />
    <path d="M860,652 L860,652 L964,652" />
    <path d="M860,652 L860,652 L980,652" />
    <path d="M868,612 L868,628 L868,628" />
    <path d="M868,628 L868,636 L868,636" />
    <path d="M868,644 L876,636 L876,636" />
    <path d="M876,636 L876,636 L876,644" />
    <path d="M884,612 L884,628 L884,628" />
    <path d="M884,628 L884,636 L884,636" />
    <path d="M884,644 L892,636 L892,636" />
    <path d="M892,636 L892,636 L892,644" />
    <path d="M900,612 L900,628 L900,628" />
    <path d="M900,628 L900,636 L900,636" />
    <path d="M900,644 L908,636 L908,636" />
    <path d="M908,636 L908,636 L908,644" />
    <path d="M916,612 L916,628 L916,628" />
    <path d="M916,628 L916,636 L916,636" />
    <path d="M916,644 L924,636 L924,636" />
    <path d="M924,636 L924,636 L924,644" />
    <path d="M932,612 L932,628 L932,628" />
    <path d="M932,628 L932,636 L932,636" />
    <path d="M932,644 L940,636 L940,636" />
    <path d="M940,636 L940,636 L940,644" />
    <path d="M948,612 L948,628 L948,628" />
    <path d="M948,628 L948,636 L948,636" />
    <path d="M948,644 L956,636 L956,636" />
    <path d="M956,636 L956,636 L956,644" />
    <path d="M964,612 L964,628 L964,628" />
    <path d="M964,628 L964,636 L964,636" />
    <path d="M964,644 L972,636 L972,636" />
    <path d="M972,636 L972,636 L972,644" />
    <path d="M980,612 L980,628 L980,628" />
    <path d="M980,628 L980,636 L980,636" />
    <path d="M980,644 L988,636 L988,636" />
    <path d="M988,636 L988,636 L988,644" />
    <path d="M868,612 L868,612 L884,612" />
    <path d="M868,644 L868,652 L868,652" />
    <path d="M884,644 L884,652 L884,652" />
    <path d="M900,644 L900,652 L900,652" />
    <path d="M916,644 L916,652 L916,652" />
    <path d="M932,644 L932,652 L932,652" />
    <path d="M948,644 L948,652 L948,652" />
    <path d="M964,644 L964,652 L964,652" />
    <path d="M980,644 L980,652 L980,652" />
    <path d="M876,644 L868,636 L868,636" />
    <path d="M868,636 L868,644 L868,644" />
    <path d="M892,644 L884,636 L884,636" />
    <path d="M884,636 L884,644 L884,644" />
    <path d="M908,644 L900,636 L900,636" />
    <path d="M900,636 L900,644 L900,644" />
    <path d="M924,644 L916,636 L916,636" />
    <path d="M916,636 L916,644 L916,644" />
    <path d="M940,644 L932,636 L932,636" />
    <path d="M932,636 L932,644 L932,644" />
    <path d="M956,644 L948,636 L948,636" />
    <path d="M948,636 L948,644 L948,644" />
    <path d="M972,644 L964,636 L964,636" />
    <path d="M964,636 L964,644 L964,644" />
    <path d="M988,644 L980,636 L980,636" />
    <path d="M980,636 L980,644 L980,644" />
    <path d="M884,612 L884,612 L900,612" />
    <path d="M900,612 L900,612 L916,612" />
    <path d="M916,612 L916,612 L932,612" />
    <path d="M932,612 L932,612 L948,612" />
    <path d="M948,612 L948,612 L964,612" />
    <path d="M964,612 L964,612 L980,612" />
    <path d="M1020,612 L1020,620 L1012,620" />
    <path d="M1020,612 L1020,628 L1020,628" />
    <path d="M1036,612 L1036,620 L1028,620" />
    <path d="M1036,612 L1036,628 L1036,628" />
    <path d="M1052,612 L1052,620 L1044,620" />
    <path d="M1052,612 L1052,628 L1052,628" />
    <path d="M1068,612 L1068,620 L1060,620" />
    <path d="M1068,612 L1068,628 L1068,628" />
    <path d="M1084,612 L1084,620 L1076,620" />
    <path d="M1084,612 L1084,628 L1084,628" />
    <path d="M1100,612 L1100,620 L1092,620" />
    <path d="M1100,612 L1100,628 L1100,628" />
    <path d="M1116,612 L1116,620 L1108,620" />
    <path d="M1116,612 L1116,628 L1116,628" />
    <path d="M1132,612 L1132,620 L1124,620" />
    <path d="M1132,612 L1132,628 L1132,628" />
    <path d="M1004,604 L1004,604 L1012,604" />
    <path d="M1004,604 L1004,604 L1004,652" />
    <path d="M1012,620 L1012,628 L1012,628" />
    <path d="M1012,612 L1012,620 L1020,628" />
    <path d="M1020,628 L1020,628 L1020,636" />
    <path d="M1028,620 L1028,628 L1028,628" />
    <path d="M1028,612 L1028,620 L1036,628" />
    <path d="M1036,628 L1036,628 L1036,636" />
    <path d="M1044,620 L1044,628 L1044,628" />
    <path d="M1044,612 L1044,620 L1052,628" />
    <path d="M1052,628 L1052,628 L1052,636" />
    <path d="M1060,620 L1060,628 L1060,628" />
    <path d="M1060,612 L1060,620 L1068,628" />
    <path d="M1068,628 L1068,628 L1068,636" />
    <path d="M1076,620 L1076,628 L1076,628" />
    <path d="M1076,612 L1076,620 L1084,628" />
    <path d="M1084,628 L1084,628 L1084,636" />
    <path d="M1092,620 L1092,628 L1092,628" />
    <path d="M1092,612 L1092,620 L1100,628" />
    <path d="M1100,628 L1100,628 L1100,636" />
    <path d="M1108,620 L1108,628 L1108,628" />
    <path d="M1108,612 L1108,620 L1116,628" />
    <path d="M1116,628 L1116,628 L1116,636" />
    <path d="M1124,620 L1124,628 L1124,628" />
    <path d="M1124,612 L1124,620 L1132,628" />
    <path d="M1132,628 L1132,628 L1132,636" />
    <path d="M1012,604 L1012,604 L1012,612" />
    <path d="M1004,652 L1004,652 L1012,652" />
    <path d="M1004,652 L1004,652 L1028,652" />
    <path d="M1004,652 L1004,652 L1044,652" />
    <path d="M1004,652 L1004,652 L1060,652" />
    <path d="M1004,652 L1004,652 L1076,652" />
    <path d="M1004,652 L1004,652 L1092,652" />
    <path d="M1004,652 L1004,652 L1108,652" />
    <path d="M1004,652 L1004,652 L1124,652" />
    <path d="M1012,612 L1012,628 L1012,628" />
    <path d="M1012,628 L1012,636 L1012,636" />
    <path d="M1012,644 L1020,636 L1020,636" />
    <path d="M1020,636 L1020,636 L1020,644" />
    <path d="M1028,612 L1028,628 L1028,628" />
    <path d="M1028,628 L1028,636 L1028,636" />
    <path d="M1028,644 L1036,636 L1036,636" />
    <path d="M1036,636 L1036,636 L1036,644" />
    <path d="M1044,612 L1044,628 L1044,628" />
    <path d="M1044,628 L1044,636 L1044,636" />
    <path d="M1044,644 L1052,636 L1052,636" />
    <path d="M1052,636 L1052,636 L1052,644" />
    <path d="M1060,612 L1060,628 L1060,628" />
    <path d="M1060,628 L1060,636 L1060,636" />
    <path d="M1060,644 L1068,636 L1068,636" />
    <path d="M1068,636 L1068,636 L1068,644" />
    <path d="M1076,612 L1076,628 L1076,628" />
    <path d="M1076,628 L1076,636 L1076,636" />
    <path d="M1076,644 L1084,636 L1084,636" />
    <path d="M1084,636 L1084,636 L1084,644" />
    <path d="M1092,612 L1092,628 L1092,628" />
    <path d="M1092,628 L1092,636 L1092,636" />
    <path d="M1092,644 L1100,636 L1100,636" />
    <path d="M1100,636 L1100,636 L1100,644" />
    <path d="M1108,612 L1108,628 L1108,628" />
    <path d="M1108,628 L1108,636 L1108,636" />
    <path d="M1108,644 L1116,636 L1116,636" />
    <path d="M1116,636 L1116,636 L1116,644" />
    <path d="M1124,612 L1124,628 L1124,628" />
    <path d="M1124,628 L1124,636 L1124,636" />
    <path d="M1124,644 L1132,636 L1132,636" />
    <path d="M1132,636 L1132,636 L1132,644" />
    <path d="M1012,612 L1012,612 L1028,612" />
    <path d="M1012,644 L1012,652 L1012,652" />
    <path d="M1028,644 L1028,652 L1028,652" />
    <path d="M1044,644 L1044,652 L1044,652" />
    <path d="M1060,644 L1060,652 L1060,652" />
    <path d="M1076,644 L1076,652 L1076,652" />
    <path d="M1092,644 L1092,652 L1092,652" />
    <path d="M1108,644 L1108,652 L1108,652" />
    <path d="M1124,644 L1124,652 L1124,652" />
    <path d="M1020,644 L1012,636 L1012,636" />
    <path d="M1012,636 L1012,644 L1012,644" />
    <path d="M1036,644 L1028,636 L1028,636" />
    <path d="M1028,636 L1028,644 L1028,644" />
    <path d="M1052,644 L1044,636 L1044,636" />
    <path d="M1044,636 L1044,644 L1044,644" />
    <path d="M1068,644 L1060,636 L1060,636" />
    <path d="M1060,636 L1060,644 L1060,644" />
    <path d="M1084,644 L1076,636 L1076,636" />
    <path d="M1076,636 L1076,644 L1076,644" />
    <path d="M1100,644 L1092,636 L1092,636" />
    <path d="M1092,636 L1092,644 L1092,644" />
    <path d="M1116,644 L1108,636 L1108,636" />
    <path d="M1108,636 L1108,644 L1108,644" />
    <path d="M1132,644 L1124,636 L1124,636" />
    <path d="M1124,636 L1124,644 L1124,644" />
    <path d="M1028,612 L1028,612 L1044,612" />
    <path d="M1044,612 L1044,612 L1060,612" />
    <path d="M1060,612 L1060,612 L1076,612" />
    <path d="M1076,612 L1076,612 L1092,612" />
    <path d="M1092,612 L1092,612 L1108,612" />
    <path d="M1108,612 L1108,612 L1124,612" />
    <path d="M1164,612 L1164,620 L1156,620" />
    <path d="M1164,612 L1164,628 L1164,628" />
    <path d="M1180,612 L1180,620 L1172,620" />
    <path d="M1180,612 L1180,628 L1180,628" />
    <path d="M1196,612 L1196,620 L1188,620" />
    <path d="M1196,612 L1196,628 L1196,628" />
    <path d="M1212,612 L1212,620 L1204,620" />
    <path d="M1212,612 L1212,628 L1212,628" />
    <path d="M1228,612 L1228,620 L1220,620" />
    <path d="M1228,612 L1228,628 L1228,628" />
    <path d="M1244,612 L1244,620 L1236,620" />
    <path d="M1244,612 L1244,628 L1244,628" />
    <path d="M1260,612 L1260,620 L1252,620" />
    <path d="M1260,612 L1260,628 L1260,628" />
    <path d="M1276,612 L1276,620 L1268,620" />
    <path d="M1276,612 L1276,628 L1276,628" />
    <path d="M1148,604 L1148,604 L1156,604" />
    <path d="M1148,604 L1148,604 L1148,652" />
    <path d="M1156,620 L1156,628 L1156,628" />
    <path d="M1156,612 L1156,620 L1164,628" />
    <path d="M1164,628 L1164,628 L1164,636" />
    <path d="M1172,620 L1172,628 L1172,628" />
    <path d="M1172,612 L1172,620 L1180,628" />
    <path d="M1180,628 L1180,628 L1180,636" />
    <path d="M1188,620 L1188,628 L1188,628" />
    <path d="M1188,612 L1188,620 L1196,628" />
    <path d="M1196,628 L1196,628 L1196,636" />
    <path d="M1204,620 L1204,628 L1204,628" />
    <path d="M1204,612 L1204,620 L1212,628" />
    <path d="M1212,628 L1212,628 L1212,636" />
    <path d="M1220,620 L1220,628 L1220,628" />
    <path d="M1220,612 L1220,620 L1228,628" />
    <path d="M1228,628 L1228,628 L1228,636" />
    <path d="M1236,620 L1236,628 L1236,628" />
    <path d="M1236,612 L1236,620 L1244,628" />
    <path d="M1244,628 L1244,628 L1244,636" />
    <path d="M1252,620 L1252,628 L1252,628" />
    <path d="M1252,612 L1252,620 L1260,628" />
    <path d="M1260,628 L1260,628 L1260,636" />
    <path d="M1268,620 L1268,628 L1268,628" />
    <path d="M1268,612 L1268,620 L1276,628" />
    <path d="M1276,628 L1276,628 L1276,636" />
    <path d="M1156,604 L1156,604 L1156,612" />
    <path d="M1148,652 L1148,652 L1156,652" />
    <path d="M1148,652 L1148,652 L1172,652" />
    <path d="M1148,652 L1148,652 L1188,652" />
    <path d="M1148,652 L1148,652 L1204,652" />
    <path d="M1148,652 L1148,652 L1220,652" />
    <path d="M1148,652 L1148,652 L1236,652" />
    <path d="M1148,652 L1148,652 L1252,652" />
    <path d="M1148,652 L1148,652 L1268,652" />
    <path d="M1156,612 L1156,628 L1156,628" />
    <path d="M1156,628 L1156,636 L1156,636" />
    <path d="M1156,644 L1164,636 L1164,636" />
    <path d="M1164,636 L1164,636 L1164,644" />
    <path d="M1172,612 L1172,628 L1172,628" />
    <path d="M1172,628 L1172,636 L1172,636" />
    <path d="M1172,644 L1180,636 L1180,636" />
    <path d="M1180,636 L1180,636 L1180,644" />
    <path d="M1188,612 L1188,628 L1188,628" />
    <path d="M1188,628 L1188,636 L1188,636" />
    <path d="M1188,644 L1196,636 L1196,636" />
    <path d="M1196,636 L1196,636 L1196,644" />
    <path d="M1204,612 L1204,628 L1204,628" />
    <path d="M1204,628 L1204,636 L1204,636" />
    <path d="M1204,644 L1212,636 L1212,636" />
    <path d="M1212,636 L1212,636 L1212,644" />
    <path d="M1220,612 L1220,628 L1220,628" />
    <path d="M1220,628 L1220,636 L1220,636" />
    <path d="M1220,644 L1228,636 L1228,636" />
    <path d="M1228,636 L1228,636 L1228,644" />
    <path d="M1236,612 L1236,628 L1236,628" />
    <path d="M1236,628 L1236,636 L1236,636" />
    <path d="M1236,644 L1244,636 L1244,636" />
    <path d="M1244,636 L1244,636 L1244,644" />
    <path d="M1252,612 L1252,628 L1252,628" />
    <path d="M1252,628 L1252,636 L1252,636" />
    <path d="M1252,644 L1260,636 L1260,636" />
    <path d="M1260,636 L1260,636 L1260,644" />
    <path d="M1268,612 L1268,628 L1268,628" />
    <path d="M1268,628 L1268,636 L1268,636" />
    <path d="M1268,644 L1276,636 L1276,636" />
    <path d="M1276,636 L1276,636 L1276,644" />
    <path d="M1156,612 L1156,612 L1172,612" />
    <path d="M1156,644 L1156,652 L1156,652" />
    <path d="M1172,644 L1172,652 L1172,652" />
    <path d="M1188,644 L1188,652 L1188,652" />
    <path d="M1204,644 L1204,652 L1204,652" />
    <path d="M1220,644 L1220,652 L1220,652" />
    <path d="M1236,644 L1236,652 L1236,652" />
    <path d="M1252,644 L1252,652 L1252,652" />
    <path d="M1268,644 L1268,652 L1268,652" />
    <path d="M1164,644 L1156,636 L1156,636" />
    <path d="M1156,636 L1156,644 L1156,644" />
    <path d="M1180,644 L1172,636 L1172,636" />
    <path d="M1172,636 L1172,644 L1172,644" />
    <path d="M1196,644 L1188,636 L1188,636" />
    <path d="M1188,636 L1188,644 L1188,644" />
    <path d="M1212,644 L1204,636 L1204,636" />
    <path d="M1204,636 L1204,644 L1204,644" />
    <path d="M1228,644 L1220,636 L1220,636" />
    <path d="M1220,636 L1220,644 L1220,644" />
    <path d="M1244,644 L1236,636 L1236,636" />
    <path d="M1236,636 L1236,644 L1236,644" />
    <path d="M1260,644 L1252,636 L1252,636" />
    <path d="M1252,636 L1252,644 L1252,644" />
    <path d="M1276,644 L1268,636 L1268,636" />
    <path d="M1268,636 L1268,644 L1268,644" />
    <path d="M1172,612 L1172,612 L1188,612" />
    <path d="M1188,612 L1188,612 L1204,612" />
    <path d="M1204,612 L1204,612 L1220,612" />
    <path d="M1220,612 L1220,612 L1236,612" />
    <path d="M1236,612 L1236,612 L1252,612" />
    <path d="M1252,612 L1252,612 L1268,612" />
    <path d="M724,596 L724,596 L724,604" />
    <path d="M724,596 L868,596 L868,604" />
    <path d="M724,596 L1012,596 L1012,604" />
    <path d="M724,596 L1156,596 L1156,604" />
    <path d="M700,572 L724,572 L724,596" />
    <path d="M716,596 L716,604 L716,604" />
    <path d="M716,588 L716,604 L716,604" />
    <path d="M860,596 L860,604 L860,604" />
    <path d="M860,588 L860,604 L860,604" />
    <path d="M1004,596 L1004,604 L1004,604" />
    <path d="M1004,588 L1004,604 L1004,604" />
    <path d="M1148,596 L1148,604 L1148,604" />
    <path d="M1148,588 L1148,604 L1148,604" />
    <path d="M700,596 L700,596 L716,596" />
    <path d="M700,588 L700,588 L716,588" />
    <path d="M700,596 L700,596 L860,596" />
    <path d="M700,596 L700,596 L1004,596" />
    <path d="M700,596 L700,596 L1148,596" />
    <path d="M700,588 L700,588 L860,588" />
    <path d="M700,588 L700,588 L1004,588" />
    <path d="M700,588 L700,588 L1148,588" />
    <path d="M700,556 L876,556 L876,612" />
    <path d="M700,548 L892,548 L892,612" />
    <path d="M700,540 L908,540 L908,612" />
    <path d="M700,532 L924,532 L924,612" />
    <path d="M700,524 L940,524 L940,612" />
    <path d="M700,516 L956,516 L956,612" />
    <path d="M700,508 L972,508 L972,612" />
    <path d="M700,500 L988,500 L988,612" />
    <path d="M700,556 L1020,556 L1020,612" />
    <path d="M700,548 L1036,548 L1036,612" />
    <path d="M700,540 L1052,540 L1052,612" />
    <path d="M700,532 L1068,532 L1068,612" />
    <path d="M700,524 L1084,524 L1084,612" />
    <path d="M700,516 L1100,516 L1100,612" />
    <path d="M700,508 L1116,508 L1116,612" />
    <path d="M700,500 L1132,500 L1132,612" />
    <path d="M700,556 L1164,556 L1164,612" />
    <path d="M700,548 L1180,548 L1180,612" />
    <path d="M700,540 L1196,540 L1196,612" />
    <path d="M700,532 L1212,532 L1212,612" />
    <path d="M700,524 L1228,524 L1228,612" />
    <path d="M700,516 L1244,516 L1244,612" />
    <path d="M700,508 L1260,508 L1260,612" />
    <path d="M700,500 L1276,500 L1276,612" />
    <path d="M724,652 L724,660 L724,660" />
    <path d="M724,660 L724,724 L700,724" />
    <path d="M740,652 L740,660 L740,660" />
    <path d="M740,660 L740,716 L700,716" />
    <path d="M756,652 L756,660 L756,660" />
    <path d="M756,660 L756,708 L700,708" />
    <path d="M772,652 L772,660 L772,660" />
    <path d="M772,660 L772,700 L700,700" />
    <path d="M788,652 L788,660 L788,660" />
    <path d="M788,660 L788,692 L700,692" />
    <path d="M804,652 L804,660 L804,660" />
    <path d="M804,660 L804,684 L700,684" />
    <path d="M820,652 L820,660 L820,660" />
    <path d="M820,660 L820,676 L700,676" />
    <path d="M836,652 L836,660 L836,660" />
    <path d="M836,660 L836,668 L700,668" />
    <path d="M700,500 L708,500 L708,500" />
    <path d="M708,500 L844,500 L844,612" />
    <path d="M700,508 L708,508 L708,508" />
    <path d="M708,508 L828,508 L828,612" />
    <path d="M700,516 L708,516 L708,516" />
    <path d="M708,516 L812,516 L812,612" />
    <path d="M700,524 L708,524 L708,524" />
    <path d="M708,524 L796,524 L796,612" />
    <path d="M700,532 L708,532 L708,532" />
    <path d="M708,532 L780,532 L780,612" />
    <path d="M700,540 L708,540 L708,540" />
    <path d="M708,540 L764,540 L764,612" />
    <path d="M700,548 L708,548 L708,548" />
    <path d="M708,548 L748,548 L748,612" />
    <path d="M700,556 L708,556 L708,556" />
    <path d="M708,556 L732,556 L732,612" />
    <path d="M868,652 L868,660 L868,660" />
    <path d="M868,660 L868,724 L700,724" />
    <path d="M1012,652 L1012,660 L1012,660" />
    <path d="M1012,660 L1012,724 L700,724" />
    <path d="M1156,652 L1156,660 L1156,660" />
    <path d="M1156,660 L1156,724 L700,724" />
    <path d="M884,652 L884,660 L884,660" />
    <path d="M884,660 L884,716 L700,716" />
    <path d="M1028,652 L1028,660 L1028,660" />
    <path d="M1028,660 L1028,716 L700,716" />
    <path d="M1172,652 L1172,660 L1172,660" />
    <path d="M1172,660 L1172,716 L700,716" />
    <path d="M900,652 L900,660 L900,660" />
    <path d="M900,660 L900,708 L700,708" />
    <path d="M1044,652 L1044,660 L1044,660" />
    <path d="M1044,660 L1044,708 L700,708" />
    <path d="M1188,652 L1188,660 L1188,660" />
    <path d="M1188,660 L1188,708 L700,708" />
    <path d="M916,652 L916,660 L916,660" />
    <path d="M916,660 L916,700 L700,700" />
    <path d="M1060,652 L1060,660 L1060,660" />
    <path d="M1060,660 L1060,700 L700,700" />
    <path d="M1204,652 L1204,660 L1204,660" />
    <path d="M1204,660 L1204,700 L700,700" />
    <path d="M932,652 L932,660 L932,660" />
    <path d="M932,660 L932,692 L700,692" />
    <path d="M1076,652 L1076,660 L1076,660" />
    <path d="M1076,660 L1076,692 L700,692" />
    <path d="M1220,652 L1220,660 L1220,660" />
    <path d="M1220,660 L1220,692 L700,692" />
    <path d="M948,652 L948,660 L948,660" />
    <path d="M948,660 L948,684 L700,684" />
    <path d="M1092,652 L1092,660 L1092,660" />
    <path d="M1092,660 L1092,684 L700,684" />
    <path d="M1236,652 L1236,660 L1236,660" />
    <path d="M1236,660 L1236,684 L700,684" />
    <path d="M964,652 L964,660 L964,660" />
    <path d="M964,660 L964,676 L700,676" />
    <path d="M1108,652 L1108,660 L1108,660" />
    <path d="M1108,660 L1108,676 L700,676" />
    <path d="M1252,652 L1252,660 L1252,660" />
    <path d="M1252,660 L1252,676 L700,676" />
    <path d="M980,652 L980,660 L980,660" />
    <path d="M980,660 L980,668 L700,668" />
    <path d="M1124,652 L1124,660 L1124,660" />
    <path d="M1124,660 L1124,668 L700,668" />
    <path d="M1268,652 L1268,660 L1268,660" />
    <path d="M1268,660 L1268,668 L700,668" />
  </g>
  <!-- Nodes (reuse shapes defined in header <def> section) -->
  <use href="#gate_or" x="700" y="556" />
  <use href="#gate_or" x="700" y="548" />
  <use href="#gate_or" x="700" y="540" />
  <use href="#gate_or" x="700" y="532" />
  <use href="#gate_or" x="700" y="524" />
  <use href="#gate_or" x="700" y="500" />
  <use href="#gate_or" x="700" y="572" />
  <use href="#gate_or" x="700" y="588" />
  <use href="#gate_or" x="700" y="596" />
  <use href="#gate_or" x="700" y="516" />
  <use href="#gate_or" x="700" y="508" />
  <use href="#gate_or" x="876" y="612" />
  <use href="#gate_or" x="1020" y="612" />
  <use href="#gate_or" x="1164" y="612" />
  <use href="#gate_led" x="708" y="556" />
  <use href="#gate_or" x="892" y="612" />
  <use href="#gate_or" x="1036" y="612" />
  <use href="#gate_or" x="1180" y="612" />
  <use href="#gate_led" x="708" y="548" />
  <use href="#gate_or" x="908" y="612" />
  <use href="#gate_or" x="1052" y="612" />
  <use href="#gate_or" x="1196" y="612" />
  <use href="#gate_led" x="708" y="540" />
  <use href="#gate_or" x="924" y="612" />
  <use href="#gate_or" x="1068" y="612" />
  <use href="#gate_or" x="1212" y="612" />
  <use href="#gate_led" x="708" y="532" />
  <use href="#gate_or" x="940" y="612" />
  <use href="#gate_or" x="1084" y="612" />
  <use href="#gate_or" x="1228" y="612" />
  <use href="#gate_led" x="708" y="524" />
  <use href="#gate_or" x="988" y="612" />
  <use href="#gate_or" x="1132" y="612" />
  <use href="#gate_or" x="1276" y="612" />
  <use href="#gate_led" x="708" y="500" />
  <use href="#gate_or" x="724" y="596" />
  <use href="#gate_nor" x="716" y="588" />
  <use href="#gate_or" x="860" y="588" />
  <use href="#gate_nor" x="1004" y="588" />
  <use href="#gate_or" x="1148" y="588" />
  <use href="#gate_nor" x="716" y="596" />
  <use href="#gate_nor" x="860" y="596" />
  <use href="#gate_or" x="1004" y="596" />
  <use href="#gate_or" x="1148" y="596" />
  <use href="#gate_or" x="956" y="612" />
  <use href="#gate_or" x="1100" y="612" />
  <use href="#gate_or" x="1244" y="612" />
  <use href="#gate_led" x="708" y="516" />
  <use href="#gate_or" x="972" y="612" />
  <use href="#gate_or" x="1116" y="612" />
  <use href="#gate_or" x="1260" y="612" />
  <use href="#gate_led" x="708" y="508" />
  <use href="#gate_nor" x="868" y="620" />
  <use href="#gate_and" x="876" y="628" />
  <use href="#gate_nor" x="1012" y="620" />
  <use href="#gate_and" x="1020" y="628" />
  <use href="#gate_nor" x="1156" y="620" />
  <use href="#gate_and" x="1164" y="628" />
  <use href="#gate_or" x="732" y="612" />
  <use href="#gate_nor" x="884" y="620" />
  <use href="#gate_and" x="892" y="628" />
  <use href="#gate_nor" x="1028" y="620" />
  <use href="#gate_and" x="1036" y="628" />
  <use href="#gate_nor" x="1172" y="620" />
  <use href="#gate_and" x="1180" y="628" />
  <use href="#gate_or" x="748" y="612" />
  <use href="#gate_nor" x="900" y="620" />
  <use href="#gate_and" x="908" y="628" />
  <use href="#gate_nor" x="1044" y="620" />
  <use href="#gate_and" x="1052" y="628" />
  <use href="#gate_nor" x="1188" y="620" />
  <use href="#gate_and" x="1196" y="628" />
  <use href="#gate_or" x="764" y="612" />
  <use href="#gate_nor" x="916" y="620" />
  <use href="#gate_and" x="924" y="628" />
  <use href="#gate_nor" x="1060" y="620" />
  <use href="#gate_and" x="1068" y="628" />
  <use href="#gate_nor" x="1204" y="620" />
  <use href="#gate_and" x="1212" y="628" />
  <use href="#gate_or" x="780" y="612" />
  <use href="#gate_nor" x="932" y="620" />
  <use href="#gate_and" x="940" y="628" />
  <use href="#gate_nor" x="1076" y="620" />
  <use href="#gate_and" x="1084" y="628" />
  <use href="#gate_nor" x="1220" y="620" />
  <use href="#gate_and" x="1228" y="628" />
  <use href="#gate_or" x="796" y="612" />
  <use href="#gate_nor" x="980" y="620" />
  <use href="#gate_and" x="988" y="628" />
  <use href="#gate_nor" x="1124" y="620" />
  <use href="#gate_and" x="1132" y="628" />
  <use href="#gate_nor" x="1268" y="620" />
  <use href="#gate_and" x="1276" y="628" />
  <use href="#gate_or" x="844" y="612" />
  <use href="#gate_and" x="724" y="604" />
  <use href="#gate_and" x="868" y="604" />
  <use href="#gate_and" x="1012" y="604" />
  <use href="#gate_and" x="1156" y="604" />
  <use href="#gate_and" x="716" y="604" />
  <use href="#gate_and" x="860" y="604" />
  <use href="#gate_and" x="1004" y="604" />
  <use href="#gate_and" x="1148" y="604" />
  <use href="#gate_nor" x="948" y="620" />
  <use href="#gate_and" x="956" y="628" />
  <use href="#gate_nor" x="1092" y="620" />
  <use href="#gate_and" x="1100" y="628" />
  <use href="#gate_nor" x="1236" y="620" />
  <use href="#gate_and" x="1244" y="628" />
  <use href="#gate_or" x="812" y="612" />
  <use href="#gate_nor" x="964" y="620" />
  <use href="#gate_and" x="972" y="628" />
  <use href="#gate_nor" x="1108" y="620" />
  <use href="#gate_and" x="1116" y="628" />
  <use href="#gate_nor" x="1252" y="620" />
  <use href="#gate_and" x="1260" y="628" />
  <use href="#gate_or" x="828" y="612" />
  <use href="#gate_and" x="868" y="628" />
  <use href="#gate_or" x="876" y="636" />
  <use href="#gate_and" x="1012" y="628" />
  <use href="#gate_or" x="1020" y="636" />
  <use href="#gate_and" x="1156" y="628" />
  <use href="#gate_or" x="1164" y="636" />
  <use href="#gate_nor" x="724" y="620" />
  <use href="#gate_and" x="732" y="628" />
  <use href="#gate_and" x="884" y="628" />
  <use href="#gate_or" x="892" y="636" />
  <use href="#gate_and" x="1028" y="628" />
  <use href="#gate_or" x="1036" y="636" />
  <use href="#gate_and" x="1172" y="628" />
  <use href="#gate_or" x="1180" y="636" />
  <use href="#gate_nor" x="740" y="620" />
  <use href="#gate_and" x="748" y="628" />
  <use href="#gate_and" x="900" y="628" />
  <use href="#gate_or" x="908" y="636" />
  <use href="#gate_and" x="1044" y="628" />
  <use href="#gate_or" x="1052" y="636" />
  <use href="#gate_and" x="1188" y="628" />
  <use href="#gate_or" x="1196" y="636" />
  <use href="#gate_nor" x="756" y="620" />
  <use href="#gate_and" x="764" y="628" />
  <use href="#gate_and" x="916" y="628" />
  <use href="#gate_or" x="924" y="636" />
  <use href="#gate_and" x="1060" y="628" />
  <use href="#gate_or" x="1068" y="636" />
  <use href="#gate_and" x="1204" y="628" />
  <use href="#gate_or" x="1212" y="636" />
  <use href="#gate_nor" x="772" y="620" />
  <use href="#gate_and" x="780" y="628" />
  <use href="#gate_and" x="932" y="628" />
  <use href="#gate_or" x="940" y="636" />
  <use href="#gate_and" x="1076" y="628" />
  <use href="#gate_or" x="1084" y="636" />
  <use href="#gate_and" x="1220" y="628" />
  <use href="#gate_or" x="1228" y="636" />
  <use href="#gate_nor" x="788" y="620" />
  <use href="#gate_and" x="796" y="628" />
  <use href="#gate_and" x="980" y="628" />
  <use href="#gate_or" x="988" y="636" />
  <use href="#gate_and" x="1124" y="628" />
  <use href="#gate_or" x="1132" y="636" />
  <use href="#gate_and" x="1268" y="628" />
  <use href="#gate_or" x="1276" y="636" />
  <use href="#gate_nor" x="836" y="620" />
  <use href="#gate_and" x="844" y="628" />
  <use href="#gate_or" x="724" y="612" />
  <use href="#gate_or" x="868" y="612" />
  <use href="#gate_or" x="1012" y="612" />
  <use href="#gate_or" x="1156" y="612" />
  <use href="#gate_or" x="716" y="652" />
  <use href="#gate_or" x="860" y="652" />
  <use href="#gate_or" x="1004" y="652" />
  <use href="#gate_or" x="1148" y="652" />
  <use href="#gate_and" x="948" y="628" />
  <use href="#gate_or" x="956" y="636" />
  <use href="#gate_and" x="1092" y="628" />
  <use href="#gate_or" x="1100" y="636" />
  <use href="#gate_and" x="1236" y="628" />
  <use href="#gate_or" x="1244" y="636" />
  <use href="#gate_nor" x="804" y="620" />
  <use href="#gate_and" x="812" y="628" />
  <use href="#gate_and" x="964" y="628" />
  <use href="#gate_or" x="972" y="636" />
  <use href="#gate_and" x="1108" y="628" />
  <use href="#gate_or" x="1116" y="636" />
  <use href="#gate_and" x="1252" y="628" />
  <use href="#gate_or" x="1260" y="636" />
  <use href="#gate_nor" x="820" y="620" />
  <use href="#gate_and" x="828" y="628" />
  <use href="#gate_or" x="868" y="636" />
  <use href="#gate_nor" x="876" y="644" />
  <use href="#gate_or" x="1012" y="636" />
  <use href="#gate_nor" x="1020" y="644" />
  <use href="#gate_or" x="1156" y="636" />
  <use href="#gate_nor" x="1164" y="644" />
  <use href="#gate_and" x="724" y="628" />
  <use href="#gate_or" x="732" y="636" />
  <use href="#gate_or" x="884" y="636" />
  <use href="#gate_nor" x="892" y="644" />
  <use href="#gate_or" x="1028" y="636" />
  <use href="#gate_nor" x="1036" y="644" />
  <use href="#gate_or" x="1172" y="636" />
  <use href="#gate_nor" x="1180" y="644" />
  <use href="#gate_and" x="740" y="628" />
  <use href="#gate_or" x="748" y="636" />
  <use href="#gate_or" x="900" y="636" />
  <use href="#gate_nor" x="908" y="644" />
  <use href="#gate_or" x="1044" y="636" />
  <use href="#gate_nor" x="1052" y="644" />
  <use href="#gate_or" x="1188" y="636" />
  <use href="#gate_nor" x="1196" y="644" />
  <use href="#gate_and" x="756" y="628" />
  <use href="#gate_or" x="764" y="636" />
  <use href="#gate_or" x="916" y="636" />
  <use href="#gate_nor" x="924" y="644" />
  <use href="#gate_or" x="1060" y="636" />
  <use href="#gate_nor" x="1068" y="644" />
  <use href="#gate_or" x="1204" y="636" />
  <use href="#gate_nor" x="1212" y="644" />
  <use href="#gate_and" x="772" y="628" />
  <use href="#gate_or" x="780" y="636" />
  <use href="#gate_or" x="932" y="636" />
  <use href="#gate_nor" x="940" y="644" />
  <use href="#gate_or" x="1076" y="636" />
  <use href="#gate_nor" x="1084" y="644" />
  <use href="#gate_or" x="1220" y="636" />
  <use href="#gate_nor" x="1228" y="644" />
  <use href="#gate_and" x="788" y="628" />
  <use href="#gate_or" x="796" y="636" />
  <use href="#gate_or" x="980" y="636" />
  <use href="#gate_nor" x="988" y="644" />
  <use href="#gate_or" x="1124" y="636" />
  <use href="#gate_nor" x="1132" y="644" />
  <use href="#gate_or" x="1268" y="636" />
  <use href="#gate_nor" x="1276" y="644" />
  <use href="#gate_and" x="836" y="628" />
  <use href="#gate_or" x="844" y="636" />
  <use href="#gate_or" x="740" y="612" />
  <use href="#gate_or" x="884" y="612" />
  <use href="#gate_or" x="1028" y="612" />
  <use href="#gate_or" x="1172" y="612" />
  <use href="#gate_and" x="724" y="652" />
  <use href="#gate_and" x="740" y="652" />
  <use href="#gate_and" x="756" y="652" />
  <use href="#gate_and" x="772" y="652" />
  <use href="#gate_and" x="788" y="652" />
  <use href="#gate_and" x="804" y="652" />
  <use href="#gate_and" x="820" y="652" />
  <use href="#gate_and" x="836" y="652" />
  <use href="#gate_and" x="868" y="652" />
  <use href="#gate_and" x="884" y="652" />
  <use href="#gate_and" x="900" y="652" />
  <use href="#gate_and" x="916" y="652" />
  <use href="#gate_and" x="932" y="652" />
  <use href="#gate_and" x="948" y="652" />
  <use href="#gate_and" x="964" y="652" />
  <use href="#gate_and" x="980" y="652" />
  <use href="#gate_and" x="1012" y="652" />
  <use href="#gate_and" x="1028" y="652" />
  <use href="#gate_and" x="1044" y="652" />
  <use href="#gate_and" x="1060" y="652" />
  <use href="#gate_and" x="1076" y="652" />
  <use href="#gate_and" x="1092" y="652" />
  <use href="#gate_and" x="1108" y="652" />
  <use href="#gate_and" x="1124" y="652" />
  <use href="#gate_and" x="1156" y="652" />
  <use href="#gate_and" x="1172" y="652" />
  <use href="#gate_and" x="1188" y="652" />
  <use href="#gate_and" x="1204" y="652" />
  <use href="#gate_and" x="1220" y="652" />
  <use href="#gate_and" x="1236" y="652" />
  <use href="#gate_and" x="1252" y="652" />
  <use href="#gate_and" x="1268" y="652" />
  <use href="#gate_or" x="948" y="636" />
  <use href="#gate_nor" x="956" y="644" />
  <use href="#gate_or" x="1092" y="636" />
  <use href="#gate_nor" x="1100" y="644" />
  <use href="#gate_or" x="1236" y="636" />
  <use href="#gate_nor" x="1244" y="644" />
  <use href="#gate_and" x="804" y="628" />
  <use href="#gate_or" x="812" y="636" />
  <use href="#gate_or" x="964" y="636" />
  <use href="#gate_nor" x="972" y="644" />
  <use href="#gate_or" x="1108" y="636" />
  <use href="#gate_nor" x="1116" y="644" />
  <use href="#gate_or" x="1252" y="636" />
  <use href="#gate_nor" x="1260" y="644" />
  <use href="#gate_and" x="820" y="628" />
  <use href="#gate_or" x="828" y="636" />
  <use href="#gate_nor" x="868" y="644" />
  <use href="#gate_nor" x="1012" y="644" />
  <use href="#gate_nor" x="1156" y="644" />
  <use href="#gate_or" x="724" y="636" />
  <use href="#gate_nor" x="732" y="644" />
  <use href="#gate_nor" x="884" y="644" />
  <use href="#gate_nor" x="1028" y="644" />
  <use href="#gate_nor" x="1172" y="644" />
  <use href="#gate_or" x="740" y="636" />
  <use href="#gate_nor" x="748" y="644" />
  <use href="#gate_nor" x="900" y="644" />
  <use href="#gate_nor" x="1044" y="644" />
  <use href="#gate_nor" x="1188" y="644" />
  <use href="#gate_or" x="756" y="636" />
  <use href="#gate_nor" x="764" y="644" />
  <use href="#gate_nor" x="916" y="644" />
  <use href="#gate_nor" x="1060" y="644" />
  <use href="#gate_nor" x="1204" y="644" />
  <use href="#gate_or" x="772" y="636" />
  <use href="#gate_nor" x="780" y="644" />
  <use href="#gate_nor" x="932" y="644" />
  <use href="#gate_nor" x="1076" y="644" />
  <use href="#gate_nor" x="1220" y="644" />
  <use href="#gate_or" x="788" y="636" />
  <use href="#gate_nor" x="796" y="644" />
  <use href="#gate_nor" x="980" y="644" />
  <use href="#gate_nor" x="1124" y="644" />
  <use href="#gate_nor" x="1268" y="644" />
  <use href="#gate_or" x="836" y="636" />
  <use href="#gate_nor" x="844" y="644" />
  <use href="#gate_or" x="756" y="612" />
  <use href="#gate_or" x="900" y="612" />
  <use href="#gate_or" x="1044" y="612" />
  <use href="#gate_or" x="1188" y="612" />
  <use href="#gate_led" x="724" y="660" />
  <use href="#gate_led" x="740" y="660" />
  <use href="#gate_led" x="756" y="660" />
  <use href="#gate_led" x="772" y="660" />
  <use href="#gate_led" x="788" y="660" />
  <use href="#gate_led" x="804" y="660" />
  <use href="#gate_led" x="820" y="660" />
  <use href="#gate_led" x="836" y="660" />
  <use href="#gate_led" x="868" y="660" />
  <use href="#gate_led" x="884" y="660" />
  <use href="#gate_led" x="900" y="660" />
  <use href="#gate_led" x="916" y="660" />
  <use href="#gate_led" x="932" y="660" />
  <use href="#gate_led" x="948" y="660" />
  <use href="#gate_led" x="964" y="660" />
  <use href="#gate_led" x="980" y="660" />
  <use href="#gate_led" x="1012" y="660" />
  <use href="#gate_led" x="1028" y="660" />
  <use href="#gate_led" x="1044" y="660" />
  <use href="#gate_led" x="1060" y="660" />
  <use href="#gate_led" x="1076" y="660" />
  <use href="#gate_led" x="1092" y="660" />
  <use href="#gate_led" x="1108" y="660" />
  <use href="#gate_led" x="1124" y="660" />
  <use href="#gate_led" x="1156" y="660" />
  <use href="#gate_led" x="1172" y="660" />
  <use href="#gate_led" x="1188" y="660" />
  <use href="#gate_led" x="1204" y="660" />
  <use href="#gate_led" x="1220" y="660" />
  <use href="#gate_led" x="1236" y="660" />
  <use href="#gate_led" x="1252" y="660" />
  <use href="#gate_led" x="1268" y="660" />
  <use href="#gate_nor" x="948" y="644" />
  <use href="#gate_nor" x="1092" y="644" />
  <use href="#gate_nor" x="1236" y="644" />
  <use href="#gate_or" x="804" y="636" />
  <use href="#gate_nor" x="812" y="644" />
  <use href="#gate_nor" x="964" y="644" />
  <use href="#gate_nor" x="1108" y="644" />
  <use href="#gate_nor" x="1252" y="644" />
  <use href="#gate_or" x="820" y="636" />
  <use href="#gate_nor" x="828" y="644" />
  <use href="#gate_nor" x="724" y="644" />
  <use href="#gate_nor" x="740" y="644" />
  <use href="#gate_nor" x="756" y="644" />
  <use href="#gate_nor" x="772" y="644" />
  <use href="#gate_nor" x="788" y="644" />
  <use href="#gate_nor" x="836" y="644" />
  <use href="#gate_or" x="772" y="612" />
  <use href="#gate_or" x="916" y="612" />
  <use href="#gate_or" x="1060" y="612" />
  <use href="#gate_or" x="1204" y="612" />
  <use href="#gate_led" x="700" y="724" />
  <use href="#gate_led" x="700" y="716" />
  <use href="#gate_led" x="700" y="708" />
  <use href="#gate_led" x="700" y="700" />
  <use href="#gate_led" x="700" y="692" />
  <use href="#gate_led" x="700" y="684" />
  <use href="#gate_led" x="700" y="676" />
  <use href="#gate_led" x="700" y="668" />
  <use href="#gate_nor" x="804" y="644" />
  <use href="#gate_nor" x="820" y="644" />
  <use href="#gate_or" x="788" y="612" />
  <use href="#gate_or" x="932" y="612" />
  <use href="#gate_or" x="1076" y="612" />
  <use href="#gate_or" x="1220" y="612" />
  <use href="#gate_or" x="804" y="612" />
  <use href="#gate_or" x="948" y="612" />
  <use href="#gate_or" x="1092" y="612" />
  <use href="#gate_or" x="1236" y="612" />
  <use href="#gate_or" x="820" y="612" />
  <use href="#gate_or" x="964" y="612" />
  <use href="#gate_or" x="1108" y="612" />
  <use href="#gate_or" x="1252" y="612" />
  <use href="#gate_or" x="836" y="612" />
  <use href="#gate_or" x="980" y="612" />
  <use href="#gate_or" x="1124" y="612" />
  <use href="#gate_or" x="1268" y="612" />
</svg>