<svg viewBox="0 0 1280 720" xmlns="http://www.w3.org/2000/svg">
<line x1="236" y1="140" x2="236" y2="140" stroke="black" stroke-width="1" /><line x1="236" y1="140" x2="292" y2="140" stroke="black" stroke-width="1" /><line x1="292" y1="140" x2="332" y2="180" stroke="black" stroke-width="1" /><line x1="332" y1="180" x2="364" y2="180" stroke="black" stroke-width="1" /><line x1="292" y1="140" x2="308" y2="124" stroke="black" stroke-width="1" /><line x1="308" y1="124" x2="420" y2="124" stroke="black" stroke-width="1" /><line x1="364" y1="180" x2="364" y2="148" stroke="black" stroke-width="1" /><line x1="364" y1="148" x2="388" y2="148" stroke="black" stroke-width="1" /><line x1="388" y1="148" x2="388" y2="180" stroke="black" stroke-width="1" /><line x1="388" y1="180" x2="428" y2="180" stroke="black" stroke-width="1" /><circle cx="204" cy="108" r="3.000000" stroke="none"  stroke-width="0" fill="black" /><rect x="0" y="0" width="6.000000" height="6.000000" stroke="none"  stroke-width="0" fill="black" /><circle cx="204" cy="124" r="3.000000" stroke="black" stroke-width="1" fill="none"  /><rect x="0" y="0" width="6.000000" height="6.000000" stroke="black" stroke-width="1" fill="none"  /><rect x="0" y="0" width="6.000000" height="6.000000" stroke="black" stroke-width="1" fill="none"  /><rect x="0" y="0" width="4.000000" height="4.000000" stroke="none"  stroke-width="0" fill="black" /><rect x="0" y="0" width="6.000000" height="6.000000" stroke="black" stroke-width="1" fill="none"  /><rect x="0" y="0" width="4.000000" height="4.000000" stroke="none"  stroke-width="0" fill="black" /><rect x="0" y="0" width="6.000000" height="6.000000" stroke="black" stroke-width="1" fill="none"  /><rect x="0" y="0" width="4.000000" height="4.000000" stroke="none"  stroke-width="0" fill="black" /><rect x="0" y="0" width="6.000000" height="6.000000" stroke="black" stroke-width="1" fill="none"  /><rect x="0" y="0" width="4.000000" height="4.000000" stroke="none"  stroke-width="0" fill="black" /><rect x="0" y="0" width="6.000000" height="6.000000" stroke="black" stroke-width="1" fill="none"  /><rect x="0" y="0" width="4.000000" height="4.000000" stroke="none"  stroke-width="0" fill="black" /><rect x="0" y="0" width="6.000000" height="6.000000" stroke="black" stroke-width="1" fill="none"  /><rect x="0" y="0" width="4.000000" height="4.000000" stroke="none"  stroke-width="0" fill="black" /><rect x="0" y="0" width="6.000000" height="6.000000" stroke="black" stroke-width="1" fill="none"  /><rect x="0" y="0" width="4.000000" height="4.000000" stroke="none"  stroke-width="0" fill="black" /></svg>